<svg height="53" viewBox="0 0 217 53" width="217" xmlns="http://www.w3.org/2000/svg" xmlns:xlink="http://www.w3.org/1999/xlink"><linearGradient id="a" x1="50%" x2="50%" y1="-0%" y2="100%"><stop offset="0" stop-color="#faa82f"/><stop offset="1" stop-color="#e76115"/></linearGradient><g fill="none" fill-rule="evenodd"><path d="m0 12.704 25.664 25.792 17.152-17.088v31.592h8.448v-52.2l-25.6 25.6-25.664-25.6z" fill="url(#a)" transform="matrix(-1 0 0 1 51.264 0)"/><path d="m53.537 30.279c-.6800034-.7480037-1.5158284-1.122-2.5075-1.122s-1.8274966.3739963-2.5075 1.122-1.02 1.651828-1.02 2.7115.3399966 1.960663 1.02 2.703 1.5158284 1.1135 2.5075 1.1135 1.8274966-.371163 2.5075-1.1135 1.02-1.643328 1.02-2.703-.3399966-1.9634963-1.02-2.7115zm-2.516 8.84c-1.7566754 0-3.2356607-.5864941-4.437-1.7595s-1.802-2.6321579-1.802-4.3775.6006607-3.2044941 1.802-4.3775 2.6803246-1.7595 4.437-1.7595c1.7566755 0 3.2356607.5864941 4.437 1.7595s1.802 2.6321579 1.802 4.3775-.6006607 3.2044941-1.802 4.3775-2.6803245 1.7595-4.437 1.7595zm22.7969989-4.437 3.026-7.565h2.873l-4.777 11.883h-2.244l-4.777-11.883h2.873zm17.5099988-7.565h2.652v11.883h-2.652zm24.3439993 0v2.363h-5.916v2.448h5.321v2.261h-5.321v2.465h6.103v2.346h-8.755v-11.883zm29.783997 1.921c-.374002.2380012-.561.5978309-.561 1.0795s.186998.8499987.561 1.105 1.170161.5298319 2.3885.8245c1.21834.2946681 2.136331.7083307 2.754 1.241.61767.5326693.9265 1.3174948.9265 2.3545s-.390996 1.8784968-1.173 2.5245-1.80766.969-3.077.969c-1.858676 0-3.507659-.6403269-4.947-1.921l1.258-1.513c1.20134 1.0426719 2.447994 1.564 3.74 1.564.646004 0 1.158832-.1388319 1.5385-.4165.379669-.2776681.5695-.6459977.5695-1.105s-.178498-.8159987-.5355-1.071-.971829-.4873323-1.8445-.697-1.535664-.4023325-1.989-.578c-.453335-.1756675-.855665-.4051652-1.207-.6885-.70267-.5326693-1.054-1.3486612-1.054-2.448s.399496-1.946497 1.1985-2.5415 1.787828-.8925 2.9665-.8925c.759337 0 1.512997.1246654 2.261.374.748004.2493346 1.393998.6006644 1.938 1.054l-1.071 1.513c-.351335-.3173349-.82733-.577999-1.428-.782-.600669-.204001-1.19283-.306-1.7765-.306-.583669 0-1.062498.1189988-1.4365.357zm23.238999-.085v10.047h-2.006v-10.047h-3.604v-1.836h9.214v1.836zm16.727999 7.344-1.19 2.703h-2.142l5.236-11.883h2.142l5.236 11.883h-2.142l-1.19-2.703zm5.134-1.853-2.159-4.896-2.159 4.896zm25.482999-3.468c0 1.9606765-.855658 3.1959975-2.567 3.706l3.111 4.318h-2.55l-2.839-3.995h-2.635v3.995h-2.006v-11.883h4.42c1.813342 0 3.110996.3059969 3.893.918s1.173 1.5923266 1.173 2.941zm-2.669 1.683c.408002-.3513351.612-.9151628.612-1.6915s-.209665-1.3089986-.629-1.598c-.419336-.2890014-1.167328-.4335-2.244-.4335h-2.55v4.25h2.499c1.133339 0 1.903998-.1756649 2.312-.527z" fill="#fff"/></g></svg>