<svg height="63" viewBox="0 0 45 63" width="45" xmlns="http://www.w3.org/2000/svg" xmlns:xlink="http://www.w3.org/1999/xlink"><linearGradient id="a" x1="50%" x2="50%" y1="-0%" y2="100%"><stop offset="0" stop-color="#fabd61"/><stop offset="1" stop-color="#ec7633"/></linearGradient><path d="m559.5 185c6.187531 0 11.484353 2.156228 15.890625 6.46875s6.609375 9.515595 6.609375 15.609375c0 4.875024-1.874981 10.734341-5.625 17.578125s-7.499981 12.468728-11.25 16.875l-5.625 6.46875c-.656253-.656253-1.476558-1.570307-2.460938-2.742188-.984379-1.17188-2.765612-3.445295-5.34375-6.820312-2.578137-3.375017-4.851552-6.656234-6.820312-9.84375s-3.773429-6.796855-5.414062-10.828125c-1.640634-4.03127-2.460938-7.593735-2.460938-10.6875 0-6.09378 2.203103-11.296853 6.609375-15.609375s9.703094-6.46875 15.890625-6.46875zm0 29.953125c2.250011 0 4.14843-.77343 5.695312-2.320313 1.546883-1.546882 2.320313-3.398426 2.320313-5.554687s-.77343-4.007805-2.320313-5.554687c-1.546882-1.546883-3.445301-2.320313-5.695312-2.320313s-4.14843.77343-5.695312 2.320313c-1.546883 1.546882-2.320313 3.398426-2.320313 5.554687s.77343 4.007805 2.320313 5.554687c1.546882 1.546883 3.445301 2.320313 5.695312 2.320313z" fill="url(#a)" fill-rule="evenodd" transform="translate(-537 -185)"/></svg>