<svg height="192" viewBox="0 0 1792 21504" width="16" xmlns="http://www.w3.org/2000/svg" xmlns:xlink="http://www.w3.org/1999/xlink"><defs><g id="a"><path d="m1412 895q0-27-18-45l-362-362-91-91q-18-18-45-18t-45 18l-91 91-362 362q-18 18-18 45t18 45l91 91q18 18 45 18t45-18l189-189v502q0 26 19 45t45 19h128q26 0 45-19t19-45v-502l189 189q19 19 45 19t45-19l91-91q18-18 18-45zm252 1q0 209-103 385.5t-279.5 279.5-385.5 103-385.5-103-279.5-279.5-103-385.5 103-385.5 279.5-279.5 385.5-103 385.5 103 279.5 279.5 103 385.5z"/></g><g id="b"><path d="m1412 897q0-27-18-45l-91-91q-18-18-45-18t-45 18l-189 189v-502q0-26-19-45t-45-19h-128q-26 0-45 19t-19 45v502l-189-189q-19-19-45-19t-45 19l-91 91q-18 18-18 45t18 45l362 362 91 91q18 18 45 18t45-18l91-91 362-362q18-18 18-45zm252-1q0 209-103 385.5t-279.5 279.5-385.5 103-385.5-103-279.5-279.5-103-385.5 103-385.5 279.5-279.5 385.5-103 385.5 103 279.5 279.5 103 385.5z"/></g><g id="c"><path d="m1408 960v-128q0-26-19-45t-45-19h-502l189-189q19-19 19-45t-19-45l-91-91q-18-18-45-18t-45 18l-362 362-91 91q-18 18-18 45t18 45l91 91 362 362q18 18 45 18t45-18l91-91q18-18 18-45t-18-45l-189-189h502q26 0 45-19t19-45zm256-64q0 209-103 385.5t-279.5 279.5-385.5 103-385.5-103-279.5-279.5-103-385.5 103-385.5 279.5-279.5 385.5-103 385.5 103 279.5 279.5 103 385.5z"/></g><g id="d"><path d="m1413 896q0-27-18-45l-91-91-362-362q-18-18-45-18t-45 18l-91 91q-18 18-18 45t18 45l189 189h-502q-26 0-45 19t-19 45v128q0 26 19 45t45 19h502l-189 189q-19 19-19 45t19 45l91 91q18 18 45 18t45-18l362-362 91-91q18-18 18-45zm251 0q0 209-103 385.5t-279.5 279.5-385.5 103-385.5-103-279.5-279.5-103-385.5 103-385.5 279.5-279.5 385.5-103 385.5 103 279.5 279.5 103 385.5z"/></g><g id="e"><path d="m1037 1395 102-102q19-19 19-45t-19-45l-307-307 307-307q19-19 19-45t-19-45l-102-102q-19-19-45-19t-45 19l-454 454q-19 19-19 45t19 45l454 454q19 19 45 19t45-19zm627-499q0 209-103 385.5t-279.5 279.5-385.5 103-385.5-103-279.5-279.5-103-385.5 103-385.5 279.5-279.5 385.5-103 385.5 103 279.5 279.5 103 385.5z" transform="matrix(.75 0 0 .75 336 336)"/></g><g id="f"><path d="m845 1395 454-454q19-19 19-45t-19-45l-454-454q-19-19-45-19t-45 19l-102 102q-19 19-19 45t19 45l307 307-307 307q-19 19-19 45t19 45l102 102q19 19 45 19t45-19zm819-499q0 209-103 385.5t-279.5 279.5-385.5 103-385.5-103-279.5-279.5-103-385.5 103-385.5 279.5-279.5 385.5-103 385.5 103 279.5 279.5 103 385.5z" transform="matrix(.75 0 0 .75 336 336)"/></g></defs><use fill="#666" xlink:href="#a"/><use fill="#447e9b" xlink:href="#a" y="1792"/><use fill="#666" xlink:href="#b" y="3584"/><use fill="#447e9b" xlink:href="#b" y="5376"/><use fill="#666" xlink:href="#c" y="7168"/><use fill="#447e9b" xlink:href="#c" y="8960"/><use fill="#666" xlink:href="#d" y="10752"/><use fill="#447e9b" xlink:href="#d" y="12544"/><use fill="#666" xlink:href="#e" y="14336"/><use fill="#447e9b" xlink:href="#e" y="16128"/><use fill="#666" xlink:href="#f" y="17920"/><use fill="#447e9b" xlink:href="#f" y="19712"/></svg>