<svg height="84" viewBox="0 0 1792 10752" width="14" xmlns="http://www.w3.org/2000/svg" xmlns:xlink="http://www.w3.org/1999/xlink"><defs><g id="a"><path d="m1408 1088q0 26-19 45l-448 448q-19 19-45 19t-45-19l-448-448q-19-19-19-45t19-45 45-19h896q26 0 45 19t19 45zm0-384q0 26-19 45t-45 19h-896q-26 0-45-19t-19-45 19-45l448-448q19-19 45-19t45 19l448 448q19 19 19 45z"/></g><g id="b"><path d="m1408 1216q0 26-19 45t-45 19h-896q-26 0-45-19t-19-45 19-45l448-448q19-19 45-19t45 19l448 448q19 19 19 45z"/></g><g id="c"><path d="m1408 704q0 26-19 45l-448 448q-19 19-45 19t-45-19l-448-448q-19-19-19-45t19-45 45-19h896q26 0 45 19t19 45z"/></g></defs><use fill="#999" xlink:href="#a"/><use fill="#447e9b" xlink:href="#a" y="1792"/><use fill="#999" xlink:href="#b" y="3584"/><use fill="#447e9b" xlink:href="#b" y="5376"/><use fill="#999" xlink:href="#c" y="7168"/><use fill="#447e9b" xlink:href="#c" y="8960"/></svg>