<svg enable-background="new 0 0 792 612" viewBox="0 0 792 612" xmlns="http://www.w3.org/2000/svg"><switch><foreignObject height="1" requiredExtensions="http://ns.adobe.com/AdobeIllustrator/10.0/" width="1"/><g><path d="m198.4 292.5c0 9.2 0 16.4.5 20.4.3 2.8.9 4.9 3.7 5.3 1.3.2 3.5.4 4.8.4 1.2 0 1.6.3 1.6.8 0 .7-.7 1-2.1 1-6 0-9.7-.3-12.2-.3s-8.5.3-12.2.3c-1.3 0-2-.2-2-1 0-.5.4-.8 1.4-.8 1.4 0 2.6-.2 3.5-.4 1.9-.4 2.4-2.5 2.8-5.3.5-4 .5-11.2.5-20.4v-16.9c0-14.6 0-17.3-.2-20.3-.2-3.3-1-4.8-4.1-5.5-.8-.2-2.4-.3-3.7-.3-1 0-1.6-.2-1.6-.8 0-.8.8-1 2.2-1 2.5 0 5.3.1 7.8.1 2.5.1 4.7.2 6 .2 3.6 0 20.7 0 22.9-.1 1.8-.1 3-.1 3.9-.4.6-.2 1.1-.6 1.5-.6s.7.4.7.9c0 .7-.5 1.8-.8 4.3-.1 1-.3 6.6-.5 7.8-.1.8-.3 1.3-1 1.3s-.9-.5-1-1.5c0-.8 0-2.3-.6-3.6-.7-1.3-2.7-2.8-6.3-2.9l-14.8-.3c-.6 0-.9.3-.9 1.3v24c0 .6.1.9.7.9l12.3-.1c1.6 0 3 0 4.3-.1 1.8-.1 3.2-.5 4.1-1.7.5-.6.7-1 1.2-1 .4 0 .6.3.6.9s-.5 3-.8 6c-.2 1.9-.4 6.3-.4 7 0 .9 0 1.8-1 1.8-.6 0-.8-.7-.8-1.3s-.2-1.8-.6-3c-.5-1.3-1.9-3.1-4.9-3.5-2.4-.3-12.6-.3-14.2-.3-.5 0-.7.2-.7.9v7.8z"/><path d="m228.3 297.8c0-10.2 7.2-23.5 26.1-23.5 15.7 0 25.4 8.7 25.4 22.5s-10 24.6-26.1 24.6c-18.1-0-25.4-12.9-25.4-23.6zm42.3 1.2c0-13.3-8-21.5-18-21.5-6.9 0-15.1 3.7-15.1 18.5 0 12.4 7.1 22.1 18.8 22.1 4.4 0 14.3-2 14.3-19.1z"/><path d="m291.4 292.5c0-9.1 0-10.8-.1-12.7-.1-2.1-.7-2.7-2.7-3.3-.5-.1-1.6-.2-2.5-.2-.6 0-1.1-.2-1.1-.6s.5-.6 1.4-.6c3.3 0 7.2.1 8.5.1 2.1 0 7.8-.1 9.7-.1 4 0 8.5.4 11.8 2.5 1.8 1.2 4.4 4.2 4.4 8.3 0 4.5-2.5 8.4-8.6 13.3 5.5 6.8 9.9 12.2 13.6 16 3.5 3.5 5.7 3.7 6.6 4 .6.1 1 .1 1.5.1s.8.4.8.6c0 .5-.4.6-1.2.6h-5.9c-3.5 0-5.2-.4-6.8-1.2-2.7-1.3-5-4.2-8.5-8.8-2.5-3.3-5.1-7.3-5.9-8.2-.4-.4-.7-.4-1.1-.4l-5.6-.1c-.3 0-.5.1-.5.5v.8c0 5.6.1 10.3.4 12.8.2 1.8.5 2.9 2.4 3.2.9.1 2.3.2 3 .2.5 0 .8.4.8.6 0 .4-.5.6-1.3.6-3.6 0-8.8-.2-9.7-.2-1.2 0-5.2.2-7.6.2-.8 0-1.2-.2-1.2-.6 0-.3.2-.6 1-.6.9 0 1.6-.1 2.2-.2 1.3-.3 1.6-1.4 1.8-3.2.3-2.5.3-7.3.3-12.8v-10.6zm8 4.7c0 .6.1.8.6 1.1 1.3.4 3.2.6 4.7.6 2.5 0 3.3-.2 4.4-1 1.9-1.3 4-4 4-8.9 0-8.5-5.8-10.7-9.5-10.7-1.6 0-3 .1-3.7.2-.4.1-.6.4-.6.9v17.8z"/><path d="m345.5 278.8-9.3.2c-3.6.1-5.1.5-6 1.8-.6.8-.9 1.6-1.1 2-.1.5-.3.8-.7.8s-.6-.4-.6-1c0-1 1.2-6.8 1.3-7.3.1-.8.4-1.1.7-1.1.5 0 1.1.5 2.7.7 1.8.2 4.2.3 6.2.3h25.2c2 0 3.3-.1 4.2-.3 1-.1 1.5-.3 1.7-.3.4 0 .5.4.5 1.3 0 1.3-.1 5.7-.1 7.3-.1.6-.2 1-.6 1-.5 0-.6-.3-.7-1.2l-.1-.6c-.1-1.6-1.8-3.4-7.3-3.5l-7.8-.1v24.3c0 5.5.1 10.3.4 12.9.2 1.7.6 2.8 2.4 3.1.8.1 2.3.2 3.2.2.7 0 1 .4 1 .6 0 .4-.5.6-1.2.6-4.1 0-8.3-.2-10-.2-1.4 0-5.7.2-8.1.2-.8 0-1.2-.2-1.2-.6 0-.3.2-.6 1-.6.9 0 1.7-.1 2.2-.2 1.3-.3 1.6-1.4 1.8-3.2.3-2.5.3-7.3.3-12.8z"/><path d="m427.8 280.2h.5c3.3-3.5 17.3-17.8 20-21.1 2.7-3.2 4.8-5.6 4.8-7.2 0-1.1-.4-1.7-1.3-1.9s-1.2-.4-1.2-1c0-.7.5-.9 1.5-.9 2 0 5.7.3 8.3.3 3 0 8.3-.3 11.2-.3 1 0 1.6.2 1.6.9s-.5.9-1.4.9c-1.3 0-3.7.4-5.6 1.1-3 1.2-6.2 3.2-10.4 7.2-3 2.9-17.5 17.3-20.7 20.7 3.5 4.5 22.3 24.8 26 28.3 4.2 4 8.5 8.4 13.7 10.4 2.9 1.1 4.7 1.9 5.9 1.4.6-.3 1.2.2 1.2.8 0 .7-.8.8-2.6.8l-6.5.2c-2.9 0-4.6 0-6.6-.2-5.2-.5-7.8-2.6-11.9-6.2-4.2-3.7-23.1-25.9-25.1-28.7l-1.1-1.4h-.5v8.7c0 8.8 0 16.4.3 20.5.2 2.7 1.1 4.8 3.5 5.2 1.3.2 3.5.4 4.7.4.8 0 1.2.3 1.2.8 0 .7-.8 1-1.8 1-5.4 0-9.5-.3-11.9-.3-2.2 0-8.2.3-12.1.3-1.2 0-1.9-.3-1.9-1 0-.5.4-.8 1.5-.8 1.4 0 2.6-.2 3.5-.4 1.9-.4 2.4-2.5 2.8-5.3.5-4 .5-11.6.5-20.4v-17c0-14.6 0-17.3-.2-20.3-.2-3.3-1-4.8-4.1-5.5-.8-.2-2.4-.3-3.7-.3-1.1 0-1.6-.2-1.6-.9s.7-.9 2.1-.9c5.1 0 11.1.3 13.4.3s6.5-.3 9.7-.3c1.3 0 2 .2 2 .9s-.6.9-1.3.9c-1 0-1.5.1-2.7.3-2.6.5-3.4 2.1-3.5 5.5-.2 3.1-.2 5.8-.2 20.3z"/><path d="m482.4 292.5c0-9.1 0-10.8-.1-12.7-.1-2.1-.7-2.7-2.7-3.3-.5-.1-1.6-.2-2.5-.2-.6 0-1.1-.2-1.1-.6s.5-.6 1.4-.6c3.3 0 7.2.1 9 .1 2 0 15.8.1 17 0 1.1-.1 2.1-.3 2.6-.4.4-.1.7-.3 1-.3.4 0 .4.3.4.6 0 .4-.4 1.1-.5 3.9-.1.6-.2 3.3-.4 4-.1.3-.2 1-.7 1-.4 0-.5-.3-.5-.8 0-.4-.1-1.5-.4-2.2-.5-1.1-1-1.9-4.1-2.2-1.1-.1-8.5-.3-9.8-.3-.3 0-.4.2-.4.6v14.9c0 .4.1.6.4.6 1.4 0 9.5 0 10.9-.1 1.5-.1 2.3-.4 3-.9.5-.4.7-.8 1-.8s.5.3.5.6c0 .4-.1 1.3-.5 4.4-.1 1.2-.3 3.6-.3 4 0 .5-.1 1.3-.6 1.3-.4 0-.6-.2-.6-.5-.1-.6-.1-1.4-.2-2.2-.4-1.2-1.1-2.1-3.5-2.3-1.1-.1-8.2-.3-9.8-.3-.3 0-.4.3-.4.6v4.8c0 2-.1 7.1 0 8.9.1 4.1 2.1 5 8.4 5 1.6 0 4.2-.1 5.9-.8 1.6-.7 2.3-2 2.7-4.5.1-.6.3-.9.7-.9.5 0 .6.8.6 1.4 0 1.3-.5 5.4-.8 6.6-.4 1.6-1 1.6-3.3 1.6-4.7 0-8.4-.1-11.4-.2s-5.4-.1-7.2-.1c-.7 0-2 .1-3.5.1-1.5.1-3 .1-4.3.1-.8 0-1.2-.2-1.2-.6 0-.3.2-.6 1-.6.9 0 1.6-.1 2.2-.2 1.3-.3 1.6-1.4 1.8-3.2.3-2.5.3-7.3.3-12.8z"/><path d="m525.6 312.4c.1 4.7.9 6.1 2.1 6.5 1.1.4 2.3.4 3.3.4.7 0 1.1.3 1.1.6 0 .5-.6.6-1.4.6-4 0-6.9-.2-8.1-.2-.6 0-3.5.2-6.7.2-.8 0-1.4-.1-1.4-.6 0-.4.4-.6 1-.6.8 0 2-.1 2.8-.3 1.6-.4 1.8-2.1 1.9-7.3l.6-35.6c0-1.2.4-2 1.1-2 .8 0 1.6.9 2.7 2 .8.8 10.1 10.3 19.2 19.2 4.2 4.2 12.5 12.7 13.4 13.5h.3l-.6-26.7c-.1-3.7-.6-4.7-2.1-5.3-.9-.4-2.4-.4-3.3-.4-.8 0-1-.3-1-.6 0-.5.6-.6 1.6-.6 3.3 0 6.6.1 7.9.1.7 0 3-.1 6.1-.1.8 0 1.4.1 1.4.6 0 .4-.4.6-1.1.6-.6 0-1.1 0-1.9.2-1.7.5-2.2 1.6-2.3 4.9l-.7 37.9c0 1.3-.5 1.9-1 1.9-1.1 0-1.9-.6-2.5-1.3-3.9-3.6-11.7-11-18.2-17.3-6.8-6.5-13.4-13.8-14.6-14.8h-.2z"/><path d="m589.5 278.8-9.3.2c-3.6.1-5.1.5-6 1.8-.6.8-.9 1.6-1.1 2-.1.5-.3.8-.7.8s-.6-.4-.6-1c0-1 1.2-6.8 1.3-7.3.1-.8.4-1.1.7-1.1.5 0 1.1.5 2.7.7 1.8.2 4.2.3 6.2.3h25.2c2 0 3.3-.1 4.2-.3 1-.1 1.5-.3 1.7-.3.4 0 .5.4.5 1.3 0 1.3-.1 5.7-.1 7.3-.1.6-.2 1-.6 1-.5 0-.6-.3-.7-1.2l-.1-.6c-.1-1.6-1.8-3.4-7.3-3.5l-7.8-.1v24.3c0 5.5.1 10.3.4 12.9.2 1.7.6 2.8 2.4 3.1.8.1 2.3.2 3.2.2.7 0 1 .4 1 .6 0 .4-.5.6-1.2.6-4.1 0-8.3-.2-10-.2-1.4 0-5.7.2-8.1.2-.8 0-1.2-.2-1.2-.6 0-.3.2-.6 1-.6.9 0 1.7-.1 2.2-.2 1.3-.3 1.6-1.4 1.8-3.2.3-2.5.3-7.3.3-12.8z"/><path d="m311.7 359.4c-3.8-3.4-4.7-7.9-4.7-11.6 0-2.6.9-7.2 4.4-10.7 2.4-2.4 5.9-4.2 12-4.2 1.6 0 3.8.1 5.7.5 1.5.3 2.7.5 4 .6.4 0 .5.2.5.4 0 .3-.1.8-.2 2.2-.1 1.3-.1 3.5-.1 4 0 .6-.1.8-.4.8s-.3-.3-.3-.8c0-1.5-.6-3.1-1.6-4-1.4-1.2-4.4-2.2-7.9-2.2-5.2 0-7.7 1.5-9 2.9-2.9 2.7-3.5 6.2-3.5 10.2 0 7.5 5.8 14.4 14.2 14.4 2.9 0 5.3-.4 6.8-2 .8-.9 1.3-2.6 1.5-3.3.1-.4.2-.6.4-.6s.3.3.3.6-.5 3.7-.9 5c-.2.7-.3.8-1 1.1-1.6.6-4.6.9-7.1.9-6 .1-10-1.4-13.1-4.2z"/><path d="m346.3 351.7c0 3.8 0 6.9.2 8.5.1 1.1.4 2 1.5 2.2.5.1 1.4.2 1.8.2.2 0 .3.1.3.2 0 .2-.2.3-.6.3-2.2 0-4.6-.1-4.8-.1s-2.7.1-3.8.1c-.4 0-.6-.1-.6-.3 0-.1.1-.2.3-.2.4 0 .8-.1 1.2-.2.8-.2 1-1 1.1-2.2.2-1.6.2-4.7.2-8.5v-6.9c0-6.1 0-7.2-.1-8.5s-.5-2-1.3-2.2c-.4-.1-.9-.2-1.2-.2-.2 0-.3-.1-.3-.2 0-.2.2-.3.6-.3 1.3 0 3.8.1 4 .1s2.7-.1 3.8-.1c.4 0 .6.1.6.3s-.2.2-.3.2c-.3 0-.5 0-1 .1-1.1.2-1.4.9-1.5 2.2s-.1 2.4-.1 8.5z"/><path d="m361.4 357.8c.1 3.2.5 4.2 1.5 4.6.7.2 1.6.2 2 .2.2 0 .3.1.3.2 0 .2-.2.3-.7.3-2.2 0-3.8-.1-4.2-.1s-2 .1-3.8.1c-.4 0-.6 0-.6-.3 0-.2.1-.2.3-.2.3 0 1 0 1.6-.2 1-.3 1.2-1.4 1.2-5v-22.5c0-1.5.1-2 .4-2s1 .9 1.4 1.3c.6.7 6.4 7 12.5 13.5 3.9 4.2 8.2 8.9 9.4 10.2l-.4-19.9c0-2.5-.3-3.4-1.5-3.7-.7-.2-1.6-.2-1.9-.2s-.3-.1-.3-.3.3-.3.8-.3c1.8 0 3.7.1 4.1.1s1.7-.1 3.3-.1c.4 0 .7 0 .7.3 0 .2-.2.3-.4.3s-.5 0-.9.1c-1.3.3-1.5 1.1-1.5 3.5l-.1 23c0 2.6-.1 2.8-.4 2.8s-.8-.4-2.9-2.5c-.4-.4-6.1-6.2-10.2-10.6-4.6-4.9-9-9.8-10.2-11.3z"/><path d="m397.5 344.8c0-6.1 0-7.2-.1-8.5s-.4-2-1.7-2.2c-.3-.1-1-.1-1.3-.1-.2 0-.3-.1-.3-.2 0-.2.2-.3.6-.3h2.8l1.6.1h9c.7 0 1.4-.1 1.7-.2.2 0 .4-.2.5-.2s.2.2.2.4c0 .3-.2.7-.3 1.8 0 .4-.1 2.1-.2 2.6 0 .2-.1.4-.3.4s-.3-.2-.3-.5 0-.9-.2-1.4c-.3-.6-.7-1.1-2.8-1.3-.7-.1-4.9-.1-5.4-.1-.2 0-.2.1-.2.4v10.8c0 .3 0 .4.2.4.5 0 5.3 0 6.2-.1s1.5-.2 1.8-.5.4-.5.6-.5c.1 0 .2.1.2.3s-.2.9-.3 2.2c-.1.8-.2 2.2-.2 2.5s0 .7-.3.7c-.2 0-.3-.2-.3-.4 0-.4 0-.8-.2-1.3s-.5-1.2-2-1.4c-1.1-.1-4.9-.2-5.6-.2-.2 0-.3.1-.3.3v3.5 6.7c.1 2.7.7 3.2 4.6 3.2 1 0 2.7 0 3.8-.4 1-.4 1.5-1.2 1.8-2.8.1-.4.2-.6.4-.6s.2.3.2.6-.3 3-.5 3.8c-.3 1-.6 1-2.1 1-2.9 0-5.1-.1-6.6-.1-1.5-.1-2.5-.1-3.1-.1-.1 0-.7 0-1.6 0-.8 0-1.7.1-2.3.1-.4 0-.6-.1-.6-.3 0-.1.1-.2.3-.2.4 0 .8-.1 1.2-.2.8-.2 1-1 1.1-2.2.2-1.6.2-4.7.2-8.5v-7z"/><path d="m450.6 358.1c.2 1.4.4 3.6 2.1 4.2 1.1.4 2.2.4 2.5.4.2 0 .3 0 .3.2s-.4.4-.8.4c-.9 0-5.1 0-6.6-.2-.9-.1-1.1-.2-1.1-.4s.1-.2.3-.3c.2 0 .2-.7.2-1.4l-1.9-20.4h-.1l-9.6 20.4c-.8 1.7-.9 2.1-1.3 2.1-.3 0-.5-.4-1.2-1.8-1-1.9-4.4-8.7-4.6-9.1-.4-.7-4.7-10.1-5.2-11.2h-.2l-1.6 18.2v2c0 .6.4 1.1 1 1.2.7.2 1.3.2 1.5.2s.3.1.3.2c0 .3-.2.4-.7.4-1.5 0-3.3-.1-3.6-.1-.4 0-2.2.1-3.3.1-.4 0-.7-.1-.7-.4 0-.1.2-.2.4-.2.3 0 .6 0 1.2-.1 1.3-.2 1.4-1.8 1.6-3.3l2.8-25.6c0-.4.2-.7.4-.7s.4.2.6.6l12 24.7 11.5-24.6c.2-.4.3-.6.6-.6s.4.3.5 1.1z"/><path d="m469.1 334.4c.5-1.3.6-1.5.9-1.5.2 0 .4.2.9 1.4.6 1.5 6.7 17.7 9.1 23.7 1.4 3.5 2.5 4.1 3.4 4.4.6.2 1.2.2 1.6.2.2 0 .4 0 .4.2s-.4.3-.8.3c-.6 0-3.5 0-6.2-.1-.7 0-1.2 0-1.2-.3 0-.2.1-.2.3-.3s.5-.4.2-1.1l-3.6-9.7c-.1-.2-.2-.2-.4-.2h-8.4c-.2 0-.3.1-.4.3l-2.4 6.9c-.4 1-.5 1.9-.5 2.6 0 .8.8 1.1 1.5 1.1h.4c.3 0 .4.1.4.2 0 .2-.2.3-.6.3-.9 0-2.6-.1-3.1-.1-.4 0-2.6.1-4.4.1-.5 0-.7-.1-.7-.3s.2-.2.4-.2c.3 0 .8 0 1.1-.1 1.8-.2 2.6-1.7 3.3-3.7zm4.1 15.7c.2 0 .2-.1.2-.3l-3.7-10.6c-.2-.6-.4-.6-.6 0l-3.5 10.6c-.1.2 0 .3.1.3z"/><path d="m286.1 364.1c-60.2 1.2-120.3 1.2-180.5 0 60.2-1.3 120.4-1.3 180.5 0z"/><path d="m286.1 351.6c-60.2 1.2-120.3 1.3-180.5 0 60.2-1.2 120.4-1.2 180.5 0z"/><path d="m686.4 364.1c-60.1 1.2-120.2 1.2-180.2 0 60-1.3 120.1-1.3 180.2 0z"/><path d="m686.4 351.6c-60.1 1.2-120.2 1.3-180.2 0 60-1.2 120.1-1.2 180.2 0z"/></g></switch></svg>