<svg height="22" viewBox="0 0 847 779" width="24" xmlns="http://www.w3.org/2000/svg"><path d="m120 1h607c66 0 120 54 120 120v536c0 66-54 120-120 120h-607c-66 0-120-54-120-120v-536c0-66 54-120 120-120z" fill="#f1c02a"/><path d="m120 1h607c66 0 120 54 120 120v536c0 66-54 120-120 120h-607c-66 0-120-54-120-120v-536c0-66 54-120 120-120zm607 25h-607c-26 0-50 11-67 28-17 18-28 41-28 67v536c0 27 11 50 28 68 17 17 41 27 67 27h607c26 0 49-10 67-27 17-18 28-41 28-68v-536c0-26-11-49-28-67-18-17-41-28-67-28z" fill="#9e9e93"/><g stroke-width="20"><path d="m706 295-68 281" stroke="#a9a8a4"/><path d="m316 648 390-353m-565 140 175 213" stroke="#e47474"/><path d="m319 151-178 284m565-140-387-144" stroke="#c9a741"/></g><path d="m319 111c22 0 40 18 40 40s-18 40-40 40-40-18-40-40 18-40 40-40zm-178 284c22 0 40 18 40 40s-18 40-40 40c-23 0-41-18-41-40s18-40 41-40zm175 213c22 0 40 18 40 40 0 23-18 41-40 41s-40-18-40-41c0-22 18-40 40-40zm390-354c22 0 40 18 40 41 0 22-18 40-40 40s-40-18-40-40c0-23 18-41 40-41zm-68 282c22 0 40 18 40 40s-18 40-40 40-40-18-40-40 18-40 40-40z" fill="#040405"/></svg>